<svg width="255" height="36" viewBox="0 0 255 36" fill="none" xmlns="http://www.w3.org/2000/svg">
<path d="M11.851 13.4919C14.4639 13.4919 16.576 11.4803 16.576 8.99192C16.576 6.50359 14.4639 4.5 11.851 4.5C9.23803 4.5 7.12598 6.51167 7.12598 9C7.12598 11.4883 9.24638 13.5 11.851 13.5V13.4919Z" fill="#5AA041"/>
<path d="M15.6763 18.4501C18.1438 9.89385 24.614 6.70085 26.8587 6.10216C29.6894 5.34548 33.7415 6.3433 33.6755 8.41376C33.6095 10.4842 31.3317 11.7731 27.4116 11.5901C22.1051 11.0496 17.9045 13.2365 15.6763 18.4501Z" fill="#5AA041"/>
<path d="M1.27637 26.0998C4.16124 20.9597 9.57858 19.8434 11.1112 19.8018C13.0372 19.7518 14.9304 20.6682 14.7664 22.0594C14.6025 23.4506 12.152 24.1587 10.2015 23.4006C6.8904 22.2177 3.49739 23.0841 1.27637 26.0998Z" fill="#5AA041"/>
<path d="M7.57617 34.1998C9.15524 29.1847 17.5742 19.7998 27.6213 19.7998C32.9803 19.7998 35.8193 22.1358 35.443 24.3167C35.0666 26.4975 31.2212 27.3714 26.4595 26.326C20.2251 24.6515 11.0452 27.3061 7.57617 34.1998Z" fill="#5AA041"/>
<path d="M63.1202 0.688965L69.0496 22.0944H69.1319V0.688965H77.7377V35.4322H67.6496L61.5143 13.9863H61.432V35.4322H52.8262V0.688965H63.1202Z" fill="black"/>
<path d="M99.7275 0.688965L108.333 35.4322H98.5335L97.5864 29.3511H90.257L89.31 35.4322H79.6748L88.1159 0.688965H99.6864H99.7275ZM93.8805 7.78356L91.3688 22.5403H96.5158L94.0041 7.78356H93.9217H93.8805Z" fill="black"/>
<path d="M123.156 0.688965L126.862 21.2836H126.944L130.65 0.688965H143.785V35.4322H135.179V9.5268H135.097L130.197 35.3917H123.568L118.668 9.5268H118.585V35.3917H109.979V0.688965H123.115H123.156Z" fill="black"/>
<path d="M156.839 0.688965V35.4322H147.657V0.688965H156.839Z" fill="black"/>
<path d="M171.127 0.688965L177.056 22.0944H177.139V0.688965H185.745V35.4322H175.656L169.521 13.9863H169.439V35.4322H160.833V0.688965H171.127Z" fill="black"/>
<path d="M189.656 9.77027C190.068 7.5 190.809 5.63513 191.797 4.17568C192.785 2.71622 194.103 1.66216 195.709 1.01351C197.315 0.364865 199.291 0 201.638 0C203.985 0 205.962 0.324324 207.567 1.01351C209.173 1.66216 210.491 2.71622 211.479 4.17568C212.467 5.63513 213.167 7.5 213.62 9.77027C214.032 12.0405 214.279 14.8378 214.279 18.0811C214.279 21.3243 214.073 24.0811 213.62 26.3919C213.209 28.6622 212.467 30.527 211.479 31.9865C210.491 33.4459 209.173 34.4595 207.567 35.0676C205.962 35.6757 203.985 36 201.638 36C199.291 36 197.315 35.6757 195.709 35.0676C194.103 34.4595 192.785 33.4054 191.797 31.9865C190.809 30.527 190.109 28.6622 189.656 26.3919C189.244 24.1216 188.997 21.3243 188.997 18.0811C188.997 14.8378 189.203 12.0811 189.656 9.77027ZM198.591 23.8784C198.673 25.4189 198.797 26.6351 199.003 27.5676C199.209 28.4595 199.538 29.1081 199.95 29.473C200.362 29.8378 200.897 30 201.597 30C202.297 30 202.832 29.8378 203.244 29.473C203.656 29.1081 203.985 28.5 204.191 27.5676C204.397 26.6757 204.562 25.4189 204.603 23.8784C204.685 22.3378 204.685 20.3919 204.685 18.0811C204.685 15.7703 204.685 13.8243 204.603 12.2838C204.52 10.7432 204.397 9.52703 204.191 8.59459C203.985 7.7027 203.656 7.05405 203.244 6.68919C202.832 6.32432 202.297 6.16216 201.597 6.16216C200.897 6.16216 200.362 6.32432 199.95 6.68919C199.538 7.05405 199.209 7.66216 199.003 8.59459C198.797 9.48649 198.632 10.7432 198.591 12.2838C198.55 13.8243 198.509 15.7703 198.509 18.0811C198.509 20.3919 198.509 22.3378 198.591 23.8784Z" fill="black"/>
<path d="M231.819 0.688965C233.549 0.688965 235.072 0.932208 236.307 1.37815C237.543 1.8241 238.531 2.47275 239.313 3.28356C240.096 4.09437 240.631 5.10788 241.001 6.24302C241.331 7.37815 241.537 8.59437 241.537 9.93221C241.537 12.2836 241.043 14.1484 240.096 15.5673C239.149 16.9863 237.625 17.8782 235.484 18.2025V18.2836C237.707 18.4863 239.19 19.2565 240.013 20.5538C240.837 21.8917 241.248 23.716 241.248 26.0673V30.4457C241.248 30.9322 241.249 31.3782 241.29 31.8241C241.29 32.27 241.372 32.6755 241.454 32.9998C241.537 33.3241 241.619 33.6484 241.701 33.8106C241.825 34.0133 241.949 34.1754 242.113 34.3782C242.237 34.5403 242.443 34.743 242.772 34.9052V35.3917H232.972C232.725 34.9457 232.56 34.4187 232.437 33.77C232.313 33.1214 232.231 32.5538 232.19 31.9052C232.149 31.2971 232.107 30.689 232.107 30.1214C232.107 29.5538 232.107 29.1079 232.107 28.743V26.3917C232.107 25.4187 232.066 24.6079 231.943 23.9592C231.86 23.3106 231.654 22.7836 231.407 22.4187C231.16 22.0538 230.831 21.77 230.46 21.6484C230.09 21.5268 229.596 21.4457 229.06 21.4457H226.631V35.3511H217.449V0.688965H231.819ZM228.443 15.3646C229.76 15.3646 230.749 14.9998 231.366 14.2295C231.984 13.4592 232.313 12.4863 232.313 11.2295C232.313 9.77005 232.025 8.71599 231.407 8.10788C230.79 7.49978 229.802 7.17545 228.402 7.17545H226.631V15.3646H228.443Z" fill="black"/>
<path d="M254.425 0.688965V35.4322H245.243V0.688965H254.425Z" fill="black"/>
</svg>
